<svg xmlns="http://www.w3.org/2000/svg" version="1.1" xmlns:xlink="http://www.w3.org/1999/xlink" xmlns:svgjs="http://svgjs.com/svgjs" width="1440" height="560" preserveAspectRatio="none" viewBox="0 0 1440 560"><g mask="url(&quot;#SvgjsMask1040&quot;)" fill="none"><rect width="1440" height="560" x="0" y="0" fill="rgba(247, 247, 247, 1)"></rect><circle r="6.205" cx="788.4050000000001" cy="455.065" filter="url(#SvgjsFilter1041)" fill="rgba(188, 190, 193, 0.1)"></circle><circle r="5.35" cx="289.61" cy="87.16999999999999" filter="url(#SvgjsFilter1041)" fill="rgba(188, 190, 193, 0.1)"></circle><circle r="5.85" cx="902.32" cy="231.21" filter="url(#SvgjsFilter1041)" fill="rgba(188, 190, 193, 0.1)"></circle><circle r="7.27" cx="845.75" cy="498.65999999999997" filter="url(#SvgjsFilter1041)" fill="rgba(188, 190, 193, 0.1)"></circle><circle r="8.86" cx="368.13" cy="512.18" filter="url(#SvgjsFilter1041)" fill="rgba(188, 190, 193, 0.1)"></circle><circle r="6.125" cx="1368.285" cy="45.695" filter="url(#SvgjsFilter1041)" fill="rgba(188, 190, 193, 0.1)"></circle><circle r="7.985" cx="721.195" cy="369.39500000000004" filter="url(#SvgjsFilter1041)" fill="rgba(188, 190, 193, 0.1)"></circle><circle r="5.835" cx="122.10499999999999" cy="508.935" filter="url(#SvgjsFilter1041)" fill="rgba(188, 190, 193, 0.1)"></circle><circle r="6.915" cx="1259.145" cy="453.875" filter="url(#SvgjsFilter1041)" fill="rgba(188, 190, 193, 0.1)"></circle><circle r="7.79" cx="370.25" cy="325.72" filter="url(#SvgjsFilter1041)" fill="rgba(188, 190, 193, 0.1)"></circle><circle r="4.74" cx="983.88" cy="526.08" filter="url(#SvgjsFilter1041)" fill="rgba(188, 190, 193, 0.1)"></circle><circle r="5.975" cx="1354.465" cy="273.415" filter="url(#SvgjsFilter1041)" fill="rgba(188, 190, 193, 0.1)"></circle><circle r="5.355" cx="1102.505" cy="125.265" filter="url(#SvgjsFilter1041)" fill="rgba(188, 190, 193, 0.1)"></circle><circle r="7.6" cx="976.47" cy="57.28" filter="url(#SvgjsFilter1041)" fill="rgba(188, 190, 193, 0.1)"></circle><circle r="6.515" cx="63.675" cy="209.86499999999998" filter="url(#SvgjsFilter1041)" fill="rgba(188, 190, 193, 0.1)"></circle><circle r="6.315" cx="633.075" cy="440.745" filter="url(#SvgjsFilter1041)" fill="rgba(188, 190, 193, 0.1)"></circle><circle r="8.87" cx="781.2" cy="24.63" filter="url(#SvgjsFilter1041)" fill="rgba(188, 190, 193, 0.1)"></circle><circle r="8.295" cx="1369.005" cy="267.355" filter="url(#SvgjsFilter1041)" fill="rgba(188, 190, 193, 0.1)"></circle><circle r="5.87" cx="1205.6499999999999" cy="331.71" filter="url(#SvgjsFilter1041)" fill="rgba(188, 190, 193, 0.1)"></circle><circle r="8.23" cx="1186.77" cy="94.07000000000001" filter="url(#SvgjsFilter1041)" fill="rgba(188, 190, 193, 0.1)"></circle><path d="M758.6 175L774.7 190.5 762 194.8C760.6 195.2 759.5 196.9 759.7 198.9 760.7 200.5 762.4 201.5 763.9 200.5L780.1 195.7 793.3 207.2 759.5 217.3C758 218.2 756.9 220 757.3 221.3 758.1 223.5 759.8 224.5 761.4 223.6L798.7 212.3 818.2 230.5 788 236.2 812.8 254.2 787.4 262.3 758.5 236.1C758.7 235.4 758.1 235.3 757.4 235.2 756.2 234.9 754.8 235.2 753.9 236.3 753 237.4 753.2 239.4 754.2 241L780.3 264.6 763.5 269.3 751 258C750.5 257.2 749.9 257.1 749.2 256.9 748.6 256.8 747.2 257.1 746.3 258.2 745.4 259.3 745.6 261.4 746.7 262.3L756.4 271.7 735.1 278.7C733.1 278.9 732.7 280.7 732.9 282.8 733.2 284.1 735 285.2 737.1 284.4L758.2 278 755.3 291.1C754.9 293 756.5 294.6 757.7 294.9 759.6 295.4 761.1 294.4 761.5 292.5L765.3 275.7 782.2 270.9 774.5 304.6C774.1 306.5 775.1 308 776.9 308.5 778.2 308.8 780.4 307.9 780.8 306.1L789.2 268.6 814.7 260.6 804.9 289.2 832.6 277.1 826.7 303.3 790 314.7C787.8 315.5 787.4 317.4 787.7 318.8 788.1 320.2 789.8 321.2 791.8 321L825.1 310.2 821.3 327 805 332.5C803 332.7 801.9 334.5 802.7 336.6 803.1 338 804.8 339 807 338.2L819.6 334.5 814.7 356.4C814.3 358.2 815.2 359.8 817.1 360.2S820.5 359.7 820.9 357.8L825.9 335.9 835.7 344.7C837.3 346.4 839.3 346.2 840.2 345.1 841.9 343.5 841.7 341.5 839.9 340.4L827.6 328.4 831.4 311.6 856.7 335.7C858.5 336.7 860.5 336.5 861.4 335.4 863.1 333.8 862.9 331.8 861.1 330.8L832.9 304.7 838.8 278.5 858.6 301.3 862.1 271.3 881.6 289.5 873.2 326.9C872.7 328.8 874.3 330.5 875.6 330.8 877.5 331.2 879 330.2 879.4 328.4L887.2 294 900.2 306.1 896.4 323C895.9 324.9 896.9 326.4 898.8 326.8 900 327.1 902.2 326.3 902.6 324.4L905.6 311.3 921.9 326.1C923.5 327.8 925.5 327.6 926.5 325.9 927.5 324.8 927.9 322.9 926.1 321.9L910 306.4 922.8 302.1C924.1 301.7 925.2 300 924.8 298.6 924.5 297.2 923.4 296.3 922.8 296.2 922.1 296 921.5 295.9 920.8 296.4L904.6 301.2 891.4 289.7 925.2 279.7C926.7 278.7 927.8 277 927.4 275.6 927.1 274.2 926 273.3 924.7 273 924.1 272.8 924.1 272.8 923.3 273.3L886 284.6 866.5 266.4 896.7 260.7 871.9 242.7 897.3 234.6 926.2 260.8C927.3 261.7 929.1 262.2 930.8 260.6 931.7 259.5 931.5 257.5 930.6 255.9L904.4 232.3 921.2 227.6 933.7 238.9C934.7 240.5 936.7 240.3 938.4 238.7 939.3 237.6 939.1 235.6 938.1 234L928.3 225.2 949.6 218.2C951.6 218 952 216.2 951.8 214.1 951.3 213.4 950.2 212.5 949.6 212.3 949 212.2 948.4 212.1 947.6 212.5L926.5 218.9 929.4 205.8C929.8 203.9 928.3 202.3 927 202L927 202C925.1 201.6 923.6 202.5 923.2 204.4L919.4 221.2 902.6 226 910.2 192.3C910.6 190.4 909.6 188.9 907.8 188.4S904.4 189 903.9 190.9L895.5 228.3 870 236.3 879.8 207.7 852.1 219.8 858 193.6 894.7 182.2C896.9 181.4 897.3 179.5 897 178.1 896.6 176.7 894.9 175.7 892.9 175.9L859.7 186.1 863.4 169.9 879.7 164.4C881.7 164.2 882.8 162.5 882 160.3 881.6 158.9 879.9 157.9 877.9 158.1L865.1 162.4 870 140.5C870.5 138.7 869.5 137.1 867.6 136.7S864.2 137.3 863.8 139.1L858.9 161 849 152.2C848.5 151.4 847.9 151.3 847.3 151.1 846 150.9 845.3 151.3 844.5 151.8 842.8 153.4 843 155.4 844.8 156.5L857.2 168.5 853.3 185.3 828 161.2C827.3 161.1 826.7 160.9 826.1 160.8 824.8 160.5 824.1 161 823.3 161.5 821.6 163.1 821.8 165.1 823.6 166.1L851.8 192.2 845.9 218.4 826.1 195.6 822.6 225.6 803.1 207.4 811.5 170C812 168.1 810.4 166.4 809.1 166.1 807.3 165.7 805.7 166.7 805.3 168.6L797.7 202.3 784.5 190.8 788.3 173.9C788.8 172 787.8 170.5 785.9 170.1S782.5 170.6 782.1 172.5L779.1 185.6 762.8 170.8C762.3 170 761.7 169.9 761.1 169.7 760.5 169.6 759.1 169.9 758.2 171 757.3 172.1 756.8 174 758.6 175ZM830.6 210.4L846.7 229.1 869.3 219.1 861.3 242.9 881.1 257.2 856.9 262.3 854.1 286.5 838 267.8 815.4 277.8 823.2 254.6 803.7 239.7 827.6 235.3 830.6 210.4Z" fill="rgba(188, 190, 193, 0.1)"></path><path d="M939.4 438.9L942.1 428 947.2 432.5C947.7 433 948.7 433 949.5 432.4 949.9 431.6 949.9 430.6 949.1 430.2L943 424.4 944.7 415.9 957.5 427.9C958.3 428.4 959.3 428.4 959.8 427.9 960.5 427 960.6 426 959.8 425.6L945.6 412.2 948.5 399.2 958.5 410.9 960.2 395.6 970 404.6 965.9 423.7C965.6 423.8 965.7 424.1 965.8 424.4 965.9 425 966.4 425.5 967.1 425.6 967.9 425.7 968.7 425.1 969.1 424.3L972.8 407.1 979 413.2 977.2 421.5C977 421.9 977.1 422.2 977.2 422.5 977.3 422.8 977.8 423.3 978.5 423.4 979.2 423.5 980.1 422.9 980.2 422.2L981.8 415.7 990.2 423.1C990.8 424 991.7 423.7 992.5 423.1 993 422.6 993 421.6 992.1 420.8L984.1 413.3 990.5 411.3C991.4 411 991.7 409.9 991.6 409.3 991.3 408.4 990.5 408 989.6 408.2L981.3 410.8 975.1 404.7 991.6 399.6C992.5 399.3 992.9 398.5 992.6 397.6 992.4 397 991.5 396.2 990.6 396.5L972.3 402.2 962.4 393.2 977.3 390.3 965.1 381.3 977.9 377.3 992 390.4C992.9 391.1 993.9 390.8 994.4 390.3 994.9 389.8 994.9 388.8 994.3 388L981.3 376.3 989.5 373.7 996 379.4C996.6 380.2 997.6 380.3 998.3 379.4 998.8 378.9 998.9 377.9 998 377.1L993.2 372.6 1003.9 369.3C1004.8 369 1005.2 368.2 1005 367.3S1003.9 365.9 1002.9 366.2L992.3 369.5 993.6 363.1C993.9 362 993.3 361.2 992.6 361 991.5 360.7 990.7 361.3 990.7 362.3L988.6 370.7 980.3 373.2 984.4 356.2C984.4 355.2 983.9 354.4 983.1 354.3 982 353.9 981.2 354.5 981.2 355.5L977 374.3 964.1 378.3 969.1 364 955.2 370 958.2 357 976.5 351.3C977.4 351 977.8 349.9 977.6 349.3 977.3 348.4 976.5 348 975.6 348.3L958.8 353.5 960.8 344.8 969 342.2C969.9 342 970.4 341.2 970.1 340.2 969.9 339.6 969 338.9 968.1 339.2L961.6 341.2 964 330.4C964.3 329.3 963.7 328.5 962.7 328.5 962 328.3 961.1 328.6 961.1 329.6L958.4 340.5 953.3 336.1C952.9 335.5 951.8 335.5 951.3 336 950.8 336.5 950.7 337.2 950.8 337.5 950.9 337.8 951 338.1 951.4 338.4L957.5 344.1 955.8 352.7 943 340.6C942.2 340.2 941.2 340.2 940.7 340.7 940.2 341.2 940.1 341.9 940.3 342.5 940.4 342.8 940.4 342.8 940.8 343L955 356.3 952 369.3 942 357.7 940.4 373 930.5 363.9 934.6 344.9C934.8 344.2 934.5 343.3 933.4 343 932.7 342.8 931.8 343.4 931.4 344.2L927.7 361.5 921.5 355.4 923.3 347.1C923.7 346.3 923.1 345.5 922 345.2 921.3 345 920.5 345.6 920 346.4L918.7 352.9 910.3 345.4C909.8 344.6 908.8 344.9 908 345.5 907.8 345.9 907.7 346.6 907.8 346.9 907.9 347.2 908 347.5 908.4 347.7L916.4 355.3 910 357.3C909.1 357.5 908.8 358.7 909 359.3L909 359.3C909.2 360.2 910 360.6 911 360.3L919.2 357.8 925.5 363.8 909 369C908 369.3 907.6 370.1 907.9 371S909 372.3 909.9 372L928.2 366.3 938.1 375.3 923.3 378.3 935.4 387.2 922.6 391.2 908.5 378.2C907.6 377.5 906.7 377.7 906.1 378.2 905.6 378.7 905.6 379.7 906.2 380.6L918.9 392.4 911 394.8 904.5 389.1C903.9 388.3 902.9 388.3 902.2 389.2 901.7 389.7 901.6 390.7 902.2 391.5L907.3 396 896.6 399.3C895.7 399.6 895.3 400.4 895.6 401.3S896.7 402.6 897.6 402.4L908.3 399 906.9 405.5C906.7 405.9 906.8 406.2 906.9 406.5 907.1 407.1 907.5 407.3 907.9 407.5 909 407.9 909.8 407.3 909.8 406.2L911.9 397.9 920.2 395.3 916.1 412.3C916.2 412.6 916.3 413 916.4 413.3 916.6 413.9 917 414.1 917.4 414.3 918.5 414.6 919.3 414 919.3 413L923.5 394.3 936.4 390.3 931.4 404.6 945.3 398.6 942.3 411.6 924 417.3C923.1 417.5 922.7 418.7 922.9 419.3 923.2 420.2 924 420.6 924.9 420.3L941.4 415.2 939.8 423.7 931.5 426.3C930.6 426.6 930.2 427.4 930.5 428.3S931.5 429.7 932.5 429.4L938.9 427.4 936.5 438.2C936.3 438.6 936.4 438.9 936.5 439.2 936.6 439.5 937.1 440 937.8 440.1 938.5 440.2 939.4 439.9 939.4 438.9ZM936.7 398.9L940.8 387.2 930.8 379.9 943.1 377.5 944.4 365.3 952.6 374.5 963.8 369.7 959.7 381.3 969.7 388.6 957.7 391 956.2 403.2 948.2 394 936.7 398.9Z" fill="rgba(188, 190, 193, 0.1)"></path><path d="M1254.2 371.2L1263.9 388.8 1250.4 389C1249 388.9 1247.4 390.2 1247 392.2 1247.4 394 1248.8 395.5 1250.2 395.6L1268 395.7 1276.9 412.1 1240.8 411.6C1238.5 411.7 1236.9 413 1237.4 414.8 1237 416.8 1238.3 418.3 1240.6 418.2L1280.4 418.7 1288.9 433.3 1269 466.9 1254.1 467 1233.7 429.7C1233.2 429.4 1232.6 429.1 1232.1 428.8 1231.5 428.4 1230.1 428.3 1229.2 428.6 1227.2 429.6 1226.7 431.5 1228.1 433.1L1246.6 467.1 1228.3 466.6 1218.3 449.6C1218.6 449 1218.1 448.7 1217.5 448.4 1216.4 447.7 1215 447.6 1213.8 448.4 1212.6 449.2 1212.2 451.2 1212.6 452.9L1220.8 466.7 1197.9 466.5C1196.5 466.4 1194.9 467.8 1194.5 469.7 1195 471.5 1196.3 473 1197.7 473.1L1219.2 473.2 1212.4 484.8C1211.4 486.4 1212.4 488.5 1213.5 489.1 1215.2 490.1 1217.5 490 1218.4 488.3L1227.2 473.5 1245.6 473.9 1227.3 504.7C1226.4 506.4 1226.8 508.1 1228.5 509.1 1230.1 510.1 1231.9 509.7 1232.8 508L1253 473.8 1268.8 473.5 1287.9 507.8 1280.5 520.5 1239.7 520.2C1237.8 519.8 1235.9 521.7 1236.4 523.5 1235.9 525.4 1237.6 526.4 1239.6 526.8L1276.5 527.1 1267.1 543.1 1248.8 542.7C1247.3 542.6 1245.5 544.5 1245.4 545.9S1247.2 549.2 1249.1 549.6L1263.2 549.7 1251.8 569C1250.8 570.7 1251.8 572.7 1253.5 573.7 1254.6 574.4 1256.9 574.2 1257.9 572.6L1269.3 553.3 1276.7 565.9C1277.5 567.1 1279.1 568.1 1281.2 567.1 1282.4 566.3 1283.2 563.7 1282.4 562.5L1273.2 546.7 1282.6 530.7 1300.7 563C1302 564.5 1303.7 565.5 1305.8 564.5 1307 563.7 1307.7 561.2 1307 560L1286.5 524.1 1294 511.4 1333.3 511.6 1340.6 525.6 1320.5 559.8C1319.5 561.4 1319.9 563.2 1321.6 564.2 1323.2 565.1 1325.5 565 1326.5 563.3L1344.7 532.5 1354 548.3 1345.2 563.2C1344.2 564.9 1344.6 566.6 1346.3 567.6 1348 568.6 1349.7 568.1 1350.7 566.5L1357.5 554.9 1368 573.7C1368.7 574.9 1371.3 575.7 1372.5 574.9 1374 573.6 1375 571.9 1373.6 570.4L1363 550.7 1378.5 550.9C1380.2 550.5 1381.7 549.1 1381.8 547.7 1381.9 546.3 1381.2 545.1 1380.1 544.4 1380.1 544.4 1379.5 544.1 1378.6 544.3L1358.9 543.8 1349.7 528 1388.4 527.8C1390.4 528.2 1391.9 526.9 1391.8 524.6 1391.6 523.7 1391.3 522.9 1390.2 522.2 1389.7 521.9 1389.1 521.6 1388.6 521.2L1346.1 521.4 1339 508.3 1358.8 474.7 1375.8 475 1395.4 509.7C1396.4 511.7 1398.4 512.2 1399.9 510.8 1401.7 510.4 1402.1 508.4 1401.1 506.3L1383.2 474.9 1401.9 474.8 1410.5 490.3C1411.3 491.5 1413.3 492 1415 491.5 1416.6 490.2 1417.6 488.5 1416.2 487L1409.9 475.1 1430 475.1C1432 475.5 1432.9 473.8 1433.4 471.9 1433.1 471 1432.4 469.8 1431.3 469.1 1431.3 469.1 1430.7 468.8 1430.2 468.5L1408.6 468.4 1416.8 454.6C1417.4 453.5 1417.3 451.2 1415.7 450.2 1414 449.3 1411.9 450.3 1411.3 451.4L1401.2 468.5 1382.5 468.6 1402.4 435C1403.4 433.3 1402.4 431.2 1400.7 430.3S1397.3 429.7 1396.3 431.4L1374.5 468.3 1359 468.1 1339.9 433.7 1348.4 419.4 1389.7 420C1391.4 419.6 1392.9 418.2 1393.4 416.3 1393.1 415.4 1392.4 414.2 1391.3 413.5 1390.7 413.2 1390.2 412.9 1389.3 413.1L1352.3 412.8 1361.7 396.8 1380.4 396.7C1381.8 396.8 1383.3 395.5 1383.8 393.5 1383.3 391.7 1382 390.2 1380.6 390.1L1365.6 390.2 1376.1 372.6C1376.7 371.5 1376 368.8 1374.9 368.2 1373.3 367.2 1370.6 367.9 1370 369L1359.6 386.6 1353 373.8C1352.5 373.5 1351.9 373.2 1351.4 372.9 1350.3 372.2 1348.8 372.1 1348 372.3 1346.4 373.7 1346 375.6 1346.5 377.4L1355.7 393.2 1346.2 409.2 1328.1 377C1327.1 374.9 1325.1 374.5 1323.9 375.2 1321.9 376.2 1321.4 378.2 1321.9 380L1342.3 415.8 1333.9 430.2 1294.6 430 1286.9 416.5 1308.7 379.6C1309.7 378 1309.2 376.2 1307.6 375.2 1305.9 374.3 1304.2 374.7 1303.2 376.4L1283.3 410 1274.4 393.6 1284.5 376.5C1285.2 375.4 1284.5 372.8 1282.9 371.8 1281.2 370.8 1279.1 371.8 1278.5 372.9L1270.3 386.7 1259.9 367.9C1259.3 367.5 1259.3 367.5 1258.8 367.2 1257.7 366.6 1256.3 366.5 1255.4 366.7 1253.9 368 1253.4 370 1254.2 371.2ZM1329.9 436.8L1334.2 437.1 1336 440.4 1351.6 468.1 1353.3 471.4 1351.4 474.7 1335.4 501.7 1333.5 505 1329.7 505 1297.9 504.8 1294.2 504.8 1291.9 501.2 1276.9 473.8 1274.5 470.2 1276.5 466.9 1292.4 439.9 1294.4 436.6 1298.7 436.9 1329.9 436.8Z" fill="rgba(188, 190, 193, 0.1)"></path><path d="M154.5 314.3L153.8 299.3 163 303.7C163.9 304.2 165.4 303.8 166.3 302.6 166.6 301.3 166.2 299.8 165.3 299.3L153.4 293.3 152.8 279.3 176.9 291.7C178.5 292.4 180 292 180.3 290.6 181.2 289.5 180.8 288 179.2 287.3L152.6 273.7 151.8 261.1 176.4 245.1 186.4 250 187.7 281.8C188 282.2 188.2 282.6 188.5 283 188.7 283.4 189.7 284 190.3 284.1 192.1 284.1 193 282.9 192.6 281.5L191.5 252.4 203.6 258.8 204.7 273.6C204.3 273.9 204.5 274.3 204.8 274.7 205.3 275.5 206.3 276 207.3 275.9 208.4 275.8 209.3 274.6 209.6 273.2L208.7 261.3 224 269C225 269.5 226.4 269.2 227.4 268 227.7 266.6 227.3 265.2 226.3 264.6L211.9 257.4 220.3 251.9C221.6 251.1 221.6 249.4 221 248.6 220.3 247.4 218.7 246.7 217.5 247.5L206.6 254.6 194.4 248.2 216.9 233.5C218.2 232.7 218.4 231.4 217.6 230.2 216.9 229 215.5 228.7 214.3 229.5L189.4 245.7 178.7 240.7 177.2 211.3 186.5 205.2 213.8 219C215 219.9 216.8 219.3 217.1 217.9 218 216.7 217.3 215.5 216.1 214.6L191.3 202.1 203 194.5 215.2 200.9C216.1 201.4 217.9 200.8 218.5 199.8S218.4 197 217.2 196.1L207.8 191.3 221.9 182.2C223.1 181.4 223.1 179.7 222.3 178.5 221.8 177.6 220.2 177 219 177.8L204.9 186.9 204.1 176C204 174.9 203.2 173.7 201.5 173.7 200.4 173.8 199 175.3 199.2 176.3L200.1 190.1 188.4 197.7 187 170C186.6 168.5 185.8 167.3 184.1 167.3 183 167.4 181.7 168.8 181.8 169.9L183.6 200.8 174.3 206.8 148 193.7 147.7 181.8 172.6 165.6C173.9 164.8 174.1 163.4 173.3 162.2 172.6 161 171 160.3 169.8 161.1L147.2 175.8 146.3 162.1 157.2 155C158.4 154.2 158.7 152.9 157.9 151.7 157.1 150.5 155.8 150.2 154.6 151L146.1 156.5 145.3 140.4C145.2 139.3 143.8 138 142.7 138.1 141.2 138.5 140 139.3 140.4 140.7L141 157.5 130.7 152.2C129.4 151.9 127.9 152.3 127.4 153.2 126.8 154.2 127 155.2 127.5 156 127.5 156 127.7 156.4 128.4 156.6L141.5 163.5 142.4 177.2 116.3 164.4C115.2 163.5 113.7 163.9 113 165.5 112.9 166.1 112.7 166.8 113.2 167.6 113.5 168 113.8 168.4 114 168.8L142.6 182.8 143.1 194 118.5 210 107.3 204.2 105.6 174.3C105.6 172.6 104.4 171.6 102.9 172 101.6 171.7 100.7 172.9 100.7 174.7L102.2 201.7 89.7 195.6 89 182.3C88.9 181.2 87.7 180.3 86.4 180 84.9 180.4 83.7 181.1 84.1 182.6L84.4 192.7 70.9 186.1C69.7 185.1 68.5 185.9 67.5 187.1 67.4 187.8 67.5 188.8 68 189.6 68 189.6 68.3 190 68.5 190.4L83 197.7 72.9 204.2C72.1 204.7 71.4 206.3 72.2 207.5 73 208.7 74.7 208.7 75.5 208.2L88 200.1 100.6 206.2 76.1 222.2C74.9 223 74.8 224.7 75.6 225.9S77.7 227.4 79 226.6L105.9 209.1 116.2 214.4 117.7 243.8 107.2 250.6 79.7 236.5C78.3 236.2 76.9 236.6 75.9 237.8 75.8 238.4 75.9 239.5 76.4 240.3 76.7 240.7 76.9 241.1 77.6 241.3L102.4 253.8 90.7 261.4 78.1 255.2C77.2 254.7 75.7 255.1 74.8 256.3 74.5 257.6 74.9 259.1 75.8 259.6L85.9 264.5 73 272.9C72.2 273.4 71.8 275.4 72.3 276.2 73.1 277.4 75.1 277.9 75.9 277.3L88.8 268.9 88.9 279.7C89.2 280.1 89.4 280.5 89.7 280.9 90.2 281.7 91.2 282.3 91.8 282.4 93.3 282 94.2 280.8 94.5 279.5L93.6 265.8 105.3 258.2 106.7 285.9C106.7 287.6 107.9 288.6 108.9 288.5 110.7 288.5 111.6 287.3 111.9 286L110.1 255 120.5 248.2 146.9 261.4 147.6 273 120.6 290.6C119.4 291.4 119.1 292.7 119.9 293.9 120.7 295.1 122 295.4 123.3 294.6L147.8 278.6 148.3 292.6 135.8 300.7C135 301.2 134.6 303.2 135.4 304.4 136.2 305.6 137.9 305.7 138.7 305.1L148.8 298.6 149.5 314.7C149.8 315.1 149.8 315.1 150.1 315.5 150.6 316.3 151.5 316.8 152.2 317 153.6 316.6 154.6 315.4 154.5 314.3ZM125.4 245.1L122.6 243.5 122.5 240.7 121.3 216.8 121.2 214 123.6 212.4 143.3 199.6 145.7 198 148.2 199.3 169.5 210 172 211.2 172.4 214.4 173.4 237.9 173.7 241.1 171.3 242.6 151.6 255.5 149.2 257 146.4 255.4 125.4 245.1Z" fill="rgba(188, 190, 193, 0.1)"></path><path d="M271.8 471.7L250.9 503.7 237.1 506.3 244.2 495.5C245.3 494.6 244.7 493.2 243.8 492.1 242.8 491.7 241.1 491.9 240.7 492.9L230.6 507.6 217.2 510.6 221.7 497.6 237.8 489.7C237.8 489.7 238.1 489.4 238.1 489.4 238.9 488.7 238.9 487.4 238.7 486.3 237.7 485.3 236.7 484.9 235.3 485.5L223.8 491.2 228.3 478.2 262.3 460.9C262.3 460.9 263 460.9 263 460.9 263.7 460.3 263.8 458.9 263.5 457.9 262.9 456.5 261.2 456.1 260.1 457L230.3 471.9 235.4 455.9 248.7 449.2C248.7 449.2 248.7 449.2 249.1 448.9 249.8 448.2 250.2 447.2 249.9 446.2 248.9 445.1 247.6 444.4 246.2 445L237.4 449.5 241.2 437.9C242 436.6 241 435.5 240 435.1 238.7 434.3 237.3 434.9 236.9 436.6L232.8 447.9 228.9 439.2C227.9 438.1 226.6 437.3 225.5 438.3 224.1 438.9 223.7 439.9 224.3 441.3L231 454.6 225.7 470.3 210.5 440.1C210.2 439.1 208.5 438.6 207.1 439.2 206.4 439.9 205.6 441.2 206.2 442.6L223.6 476.6 219.1 489.6 213.3 478C212.7 476.6 211.4 476.6 210 477.2 208.9 477.4 208.5 479.1 208.8 480.1L217 495.9 212.8 509.3 203.6 498.9 204.6 481.3C204.7 479.9 203.7 478.8 202.4 478.7 201.4 478.3 200 479.6 199.9 481L199.1 493.9 189.9 483.4 192.5 445.2C192.6 443.8 191.6 442.7 190.3 442.7 188.9 442.6 187.8 443.5 187.7 444.9L185.4 478.4 174.6 466.2 175.5 451.3C175.5 450 174.6 448.9 173.2 448.8 171.9 448.7 170.8 449.7 170.7 451L169.8 460.8 161.8 451.9C160.9 450.8 159.5 450.7 158.4 451.7 157.4 452.6 157.3 454 158.2 455L166.2 464 156.7 463.5C155.4 463.4 154.3 464.3 154.2 465.7S155.1 468.1 156.4 468.2L170.7 469 181.8 481.6 148.6 479.6C147.3 479.6 146.2 480.5 146.1 481.9 146 483.2 147 484.3 148.3 484.4L186.3 486.6 195.5 497 182.7 496.3C181.3 496.2 180.2 497.2 180.1 498.5 180.1 499.9 181 500.9 182.4 501L200 502.1 208.9 512.1 195.8 514.7 180.8 505C179.8 504.6 178.1 504.8 177.7 505.8 176.9 507.2 177.2 508.2 178.1 509.3L188.9 516.4 175.9 519 143.8 498C142.5 497.3 141.4 497.6 140.4 498.5 139.6 499.8 140.2 501.2 140.8 502L169 520.6 152.5 523.7 140.3 515.9C139.4 514.8 138 515.4 136.9 516.3 136.5 517.3 136.8 519 138.1 519.8L145.9 525 134.2 527.7C132.8 527.7 132.1 529 132.3 530.7 132.6 531.7 133.9 532.5 135 532.2L147 529.9 141.4 538C140.7 539.3 141.2 540.7 142.2 541.1 143.2 542.2 144.2 541.9 145 541.3 145.3 541 145.3 541 145.7 540.7L153.5 528.5 170 525.4 151.7 553.3C150.6 554.2 151.2 555.6 152.2 556.7 153.2 557.1 154.2 556.8 155 556.2 155.3 555.9 155.3 555.9 155.3 555.9L176.9 523.8 190 521.2 182.9 532C182.2 533.3 182.4 534.3 183.4 535.4 184.4 535.8 185.7 535.9 186.5 535.3 186.8 534.9 186.8 534.9 187.2 534.6L196.9 519.6 210 516.9 205.8 529.6 190 537.9C188.6 538.5 188.2 540.1 188.5 541.2 189.4 542.2 190.8 543 191.8 542L203.4 536.3 199.6 549.3 164.9 566.6C163.8 566.9 163.4 568.6 163.7 569.6 164.6 570.7 165.9 571.4 167.3 570.8L197.1 556 191.8 571.6 178.8 578C177.4 578.6 177 580.3 177.9 581.3 178.2 582.4 179.5 583.1 180.9 582.5L189.7 578 185.9 589.6C185.5 590.6 186.1 592 187.5 592.8 188.1 592.8 189.2 592.5 189.9 591.9 189.9 591.9 190.3 591.6 190.6 591.3L194.4 579.6 198.9 588.4C199.2 589.4 200.9 589.8 201.9 589.6 202.3 589.2 202.3 589.2 202.3 589.2 203.4 588.3 203.4 586.9 202.8 586.2L196.4 573.3 201.5 557.2 216.7 587.4C217.6 588.5 218.6 588.9 220 588.3 220 588.3 220.4 587.9 220.4 587.9 221.1 587.3 221.5 586.3 220.9 584.9L203.9 550.6 208.1 537.9 213.8 549.5C214.8 550.5 216.1 551.3 217.2 550.3 217.5 550.7 217.9 550.4 217.9 550.4 218.6 549.8 218.7 548.4 218.4 547.4L210.1 531.6 214.6 518.6 223.6 528.6 222.5 546.2C222.4 547.6 223.7 549 225.1 549.1 226.1 548.8 227.2 547.9 227.6 546.9L228 533.7 237.3 544.1 235 582C234.9 583.4 235.9 584.4 237.3 584.5 238.6 584.6 239.7 583.6 239.8 582.3L241.7 549.1 252.9 561.6 252 575.9C252 577.2 252.9 578.3 254.3 578.4S256.7 577.5 256.8 576.2L257.4 566.7 265.3 575.6C266.3 576.7 267.6 576.8 268.7 575.8 269.8 574.9 269.9 573.5 268.9 572.5L260.9 563.5 270.8 563.7C271.5 563.8 272.1 563.8 272.5 563.5 272.9 563.2 273.3 562.2 273.3 561.5 273.4 560.1 272.4 559.1 271.1 559L256.5 558.5 245.3 545.9 278.9 547.6C279.6 547.6 280.2 547.6 280.6 547.3 281 547 281.4 546 281.4 545.3 281.5 544 280.5 542.9 279.2 542.8L240.9 540.9 231.6 530.5 244.8 531.6C245.5 531.6 246.2 531 246.6 530.7 246.9 530.4 247.3 530 247.3 529.4 247.4 528 246.1 526.6 245.1 526.8L227.2 525.4 218.2 515.4 231.7 512.4 246.4 522.5C247.4 522.9 248.7 523 249.4 522.3 249.8 522 249.8 522 249.5 521.7 250.6 520.7 250.3 519 249 518.2L238.2 511.1 251.6 508.2 283.7 529.8C284.7 530.2 285.7 529.9 286.4 529.3 286.8 529 286.8 529 286.8 529 287.6 527.7 287.6 526.3 286.3 525.6L258.2 506.9 274.7 503.8 286.8 511.6C288.1 512.4 289.2 512.1 289.9 511.5 289.9 511.5 290.2 511.2 290.2 511.2 291 509.9 290.4 508.5 289.8 507.7L281.2 502.5 293.3 500.1C293.6 499.8 294 499.5 294.3 499.2 294.7 498.9 295.1 497.9 295.1 497.2 294.5 495.8 293.6 494.7 292.2 495.3L280.2 497.6 285.7 489.5C286.5 488.2 285.9 486.8 285.3 486.1 283.9 485.3 282.6 485.9 281.5 486.8L273.6 499 257.4 502.4 275.7 474.6C276.5 473.3 276.3 471.6 275.3 471.2 274 470.4 272.6 470.3 271.8 471.7Z" fill="rgba(188, 190, 193, 0.1)"></path><path d="M772.6 416.1L784.9 439.6 777.6 462.1 761.7 444.6 763.2 418.1C763.2 418.1 763.2 417.8 763.2 417.8 763 417.2 762.3 416.7 761.6 416.5 760.6 416.4 759.8 417.2 760 418.1L758.7 441.3 751 432.8 751.4 422.6C751.4 422.6 751.4 422.3 751.4 422.3 751.2 421.7 750.5 421.2 749.8 421 748.8 420.9 748 421.7 748.2 422.6L747.7 429.6 742.1 423.3C741.7 422.7 740.3 422.7 739.8 423.1 738.9 423.7 739.2 424.9 739.6 425.5L745.2 431.8 738.3 431.3C737.3 431.2 736.5 432 736.7 433 736.5 434 737.4 434.8 738.3 434.6L748.5 435 755.9 443.6 732.8 442.3C731.8 442.2 731 443 731.2 444 731 445 731.9 445.8 732.8 445.6L759.3 447.1 775.2 464.6 751.7 469.7 729.3 455.2C728.6 454.7 727.6 454.9 727.1 455.6 726.6 456.4 726.8 457.3 727.6 457.8L747.4 470.6 736.1 473 727.7 467.6C727 467.1 726 467.3 725.5 468.1 725 468.8 725.2 469.8 726 470.3L731.7 474 723 475.8C721.9 475.7 721.5 476.8 721.7 477.7 721.9 478.7 722.7 479.2 723.6 479L731.8 477.2 728.1 482.9C727.6 483.7 727.8 484.6 728.5 485.1S730.2 485.4 730.7 484.6L736.1 476.3 747.4 473.9 734.6 493.6C734.1 494.4 734.3 495.3 735.1 495.8 735.9 496.3 736.8 496.1 737.3 495.3L751.8 472.9 774.9 468 767.7 490.5 744.7 502.3C743.8 502.8 743.7 503.8 743.9 504.7 744.4 505.6 745.4 505.7 746.3 505.5L767 494.9 763.4 505.8 754.3 510.4C753.4 510.9 753.3 511.9 753.5 512.8 754 513.7 755 513.8 755.6 513.7L761.8 510.4 759.3 518.4C759.1 519.1 759.4 520.4 760.4 520.5 761.4 520.6 762.3 520.4 762.4 519.4L764.9 511.3 768.2 517.5C768.7 518.4 769.7 518.5 770.4 518.4 770.9 517.9 771.4 517.1 771.3 516.5 771.3 516.5 771.2 516.2 771.2 516.2L766.6 507 770.2 496.1 780.8 516.8C781.3 517.6 782.4 517.7 783 517.6 783.5 517.2 784 516.4 783.9 515.8 783.9 515.8 783.8 515.5 783.8 515.5L771.6 491.9 778.8 469.4 794.7 486.9 793.2 513.4C793.1 514.5 793.9 515.3 794.9 515.1 795.9 515.2 796.7 514.3 796.5 513.4L797.7 490.2 805.4 498.7 805 509C804.9 510 805.7 510.8 806.7 510.6 807.7 510.7 808.5 509.8 808.3 508.9L808.7 501.9 814.4 508.3C814.8 508.8 816.1 508.9 816.7 508.4 817.2 508 817.4 507.3 817.3 506.6 817.2 506.3 817.1 506 816.8 505.8L811.2 499.5 818.1 499.9C819.1 500 819.9 499.2 819.7 498.3 819.7 498.3 819.7 497.9 819.7 497.9 819.5 497.3 818.8 496.8 818.1 496.7L807.8 496.2 800.1 487.7 823.3 489C824.3 489.1 825.1 488.3 824.9 487.3 824.9 487.3 824.8 487 824.8 487 824.7 486.4 824 485.9 823.3 485.7L796.8 484.2 780.9 466.7 804 461.7 826.5 476.2C827.2 476.7 828.2 476.5 828.6 475.7 829.1 475 828.9 474 828.2 473.5L808.7 460.7 820 458.3 828.3 463.7C829.1 464.2 830 464 830.5 463.2S830.8 461.5 830.1 461L824.4 457.3 832.5 455.6C833.4 455.4 833.9 454.6 833.7 453.7 833.5 452.8 832.8 452.3 831.8 452.5L823.7 454.2 827.4 448.5C827.6 448.1 827.9 447.7 827.7 447.1S827.2 446.3 826.8 446C826.1 445.5 825.1 445.7 824.7 446.5L819.2 454.8 808 457.3 820.8 437.5C821 437.1 821.2 436.7 821.1 436.1 821 435.8 820.6 435.2 820.2 435 819.5 434.5 818.5 434.7 818 435.5L803.5 457.9 780.4 462.9 787.7 440.3 811.2 428.1C811.8 427.6 812.3 426.9 812.1 426.3 812.1 426.3 812.1 425.9 812.1 425.9 811.5 425.1 810.5 425 809.9 425.1L789.3 435.7 792.8 424.8 802 420.2C802.6 419.8 803 419 802.9 418.4 802.9 418.4 802.8 418.1 802.8 418.1 802.3 417.2 801.3 417.1 800.7 417.3L794.5 420.5 797.1 412.5C797 412.2 797.2 411.8 797.2 411.5 797 410.8 796.6 410.3 795.9 410.1 794.9 410 793.9 410.2 793.8 411.2L791.3 419.3 788 413.1C787.5 412.2 786.5 412.1 785.9 412.3 785 412.8 784.9 413.8 785 414.4L789.6 423.6 786.1 434.5 775.4 413.8C774.9 413 773.9 412.9 773.3 413 772.5 414.1 772.1 415.2 772.6 416.1Z" fill="rgba(188, 190, 193, 0.1)"></path><path d="M534.9 389.2L566.3 378.6 574.6 382.5 576 402.8 568.3 408.2 535.8 401.5C535.4 401.6 535.4 401.6 535 401.6 534.2 401.7 533.4 402.1 533.1 403.3 533.2 404.5 533.6 405.3 534.8 405.6L563.3 411.3 551.4 419.3 538.8 417C538.8 417 538.4 417 538.4 417 537.6 417.1 536.9 417.5 536.5 418.7 536.2 419.6 537.1 420.7 538.3 421L546.4 422.9 537.6 428.7C536.8 429.1 536.5 430.4 537 431.5S539.1 432.6 540.3 432.1L548.7 426.3 547.2 434.4C546.9 435.7 547.8 436.8 549 437.1 549.8 437.1 551 436.6 551.3 435.4L553.7 422.8 565.9 414.7 560.2 443.2C559.9 444.4 560.8 445.6 561.6 445.9 562.8 445.8 564 445.3 564.3 444.1L570.5 411.6 578.6 406.3 596.4 415.1 597.1 424.7 575.5 449.8C574.8 450.6 574.9 451.8 575.7 452.6S577.8 453.2 578.5 452.4L597.5 430.2 598.5 445 590.3 454.4C589.5 455.2 589.6 456.4 590.5 457.6S592.5 458.2 593.3 457.4L598.8 450.6 599.6 461.4C599.6 462.6 600.9 463.3 602.1 463.2 603.3 463.1 604 462.3 604 461.1L603.2 450.3 609.6 455.9C610.5 457 611.7 456.9 612.4 455.7 613.2 454.8 613.1 453.6 612.2 452.9L602.8 444.7 601.8 429.9 623.6 449.3C624.5 450.1 626.1 449.9 626.8 449.1S627.5 447 626.6 446.3L601.5 424.4 600.8 414.8 617.7 403.6 626 407.9 636.6 439.2C637 440.4 638.3 440.7 639.5 440.6 640.6 440.1 640.9 438.9 640.9 437.7L631.4 410.3 644.2 416.6 648.3 428.8C648.8 430 650 430.3 651.2 430.2 651.9 429.7 652.7 428.5 652.2 427.3L649.6 419.5 659.2 424C660 424.4 661.2 423.9 661.9 423.1 662.2 421.8 661.8 420.7 660.9 420.3L651.4 415.8 659.6 412.8C660.4 412.3 661.1 411.1 660.7 410.3 660.6 409.1 659.7 408.8 658.5 408.9 658.5 408.9 658.2 408.9 658.2 408.9L646 412.9 633.1 406.6 660.6 397.1C661.7 396.6 662.5 395.8 662 394.6 661.5 393.4 660.7 393.1 659.9 393.1 659.5 393.2 659.5 393.2 659.5 393.2L627.8 404.1 619.5 399.9 618.1 379.5 625.8 374.6 658.7 380.8C659.5 381.1 660.6 380.2 661 379.4 661.3 378.2 660.4 377.1 659.2 376.7L630.7 371.1 642.6 363 655.2 365.4C656.4 365.7 657.6 365.2 657.5 364 657.8 362.8 657 361.7 656.1 361.3L647.6 359.9 656.4 354.1C657.2 353.2 657.5 352 657 350.8 656.6 350.5 655.8 350.1 655 350.2 654.6 350.2 654.6 350.2 654.2 350.6L645.4 356.4 646.8 347.9C647.1 346.7 646.3 345.9 645.4 345.6 645 345.6 645 345.6 644.6 345.7 643.8 345.7 643.1 346.2 642.7 347L640.4 359.6 628.5 367.6 634.2 339.1C634.1 337.9 633.6 336.8 632.4 336.9 632 336.5 632 336.5 631.6 336.5 630.8 336.6 630.1 337.4 629.7 338.2L623.5 371.1 615.8 376.1 597.6 367.3 597 358.1 618.9 333C619.7 332.1 619.6 330.5 618.7 329.8S616.3 329.1 615.5 330L596.6 352.1 595.6 337.8 603.8 328C604.5 327.1 604.4 325.9 603.6 325.2 602.7 324.4 601.5 324.5 600.8 325.4L595.2 331.8 594.5 321C594.4 320.2 593.5 319 592.3 319.1 591.1 319.2 590 320.5 590.1 321.3L590.8 332.1 584.4 326.5C584 326.1 583.6 325.7 583.2 325.8 582.4 325.8 582 326.2 581.6 326.7 580.9 327.5 580.9 328.7 581.8 329.5L591.2 338 592.2 352.4 570.4 333C570 332.7 569.6 332.7 568.8 332.8 568.4 332.8 568 332.8 567.6 333.2 566.9 334.1 567 335.7 567.8 336.4L592.6 358.4 593.2 367.6 576.7 378.7 568 374.9 557.5 343.1C557 342.4 556.2 341.6 555.4 341.7 555 341.7 555 341.7 555 342.1 553.8 342.2 553.1 343.4 553.6 344.6L563 372 549.8 365.7 545.7 353.6C545.3 352.8 544.5 352.4 543.7 352.5 543.7 352.5 543.3 352.5 543.3 352.5 542.1 352.6 541.4 353.9 541.8 355L544.8 363.2 535.3 358.7C534.8 358.3 534.4 358.3 534 358.4 533.2 358.4 532.5 358.9 532.5 359.3 531.8 360.5 532.3 361.7 533.1 362.4L542.7 367 534.8 369.5C533.6 370 532.9 371.3 533.4 372.4 533.9 373.2 535.1 373.9 535.9 373.5L548 369.4 560.9 375.8 533.5 385.3C532.3 385.7 532 387 532.1 388.2 532.5 388.9 533.8 389.7 534.9 389.2ZM580.2 400.1L579.1 384.6 579 382.2 580.9 380.8 593.5 372.4 595.8 371 597.9 372.1 611.6 378.8 613.7 379.8 613.8 382.2 614.9 397.8 615.1 400.2 613.1 401.5 600.5 410 598.6 411.3 596.1 410.3 582.4 403.6 580.3 402.5 580.2 400.1Z" fill="rgba(188, 190, 193, 0.1)"></path><path d="M1289.1 55.7L1282.6 68.1 1277.8 61.1C1277.3 60.4 1276.1 60 1274.9 60.5 1274.2 61.3 1273.9 62.6 1274.7 63.3L1280.4 72.2 1275.8 82.1 1263.9 63.5C1263 62.8 1261.8 62.4 1261 62.9 1259.9 63.7 1259.6 65 1260.4 65.7L1273.6 86.2 1266 101.1 1257.4 83.9 1250.8 101.9 1241.6 88 1252.4 66.2C1252.8 66.1 1252.8 65.7 1252.8 65.3 1252.7 64.5 1252.3 63.8 1251.5 63.4 1250.6 63.1 1249.5 63.5 1248.7 64.4L1239 84.2 1233.3 74.9 1238 65.4C1238.3 65 1238.3 64.6 1238.3 64.2 1238.3 63.8 1237.8 63 1237 62.6 1236.2 62.3 1235 62.7 1234.6 63.6L1230.7 71 1222.8 59.4C1222.3 58.3 1221.1 58.3 1220 58.8 1219.2 59.2 1218.8 60.5 1219.7 61.6L1227.2 73.2 1218.8 73.7C1217.6 73.7 1216.9 75 1216.9 75.8 1217 77 1217.8 77.7 1219 77.7L1229.8 77.1 1235.5 86.4 1214 87.6C1212.8 87.6 1212 88.5 1212.1 89.7 1212.1 90.5 1213 91.6 1214.2 91.6L1238.2 90.2 1247.4 104.1 1228.5 103.2 1240.5 117.7 1223.7 118.7 1210.6 98.6C1209.7 97.4 1208.5 97.5 1207.7 97.9 1207 98.4 1206.6 99.6 1207.1 100.8L1219.4 118.9 1208.6 119.5 1202.5 110.7C1202 109.5 1200.8 109.2 1199.6 110 1198.8 110.5 1198.5 111.7 1199.4 112.8L1203.8 119.8 1189.8 120.6C1188.6 120.7 1187.8 121.5 1187.9 122.7S1188.8 124.7 1190 124.6L1204 123.8 1200.4 131.2C1199.7 132.5 1200.2 133.6 1201 134 1202.2 134.7 1203.4 134.2 1203.7 133L1208.8 123.5 1219.6 122.9 1209.5 142.3C1209.1 143.5 1209.6 144.7 1210.4 145.1 1211.7 145.8 1212.8 145.3 1213.2 144.1L1224 122.7 1240.7 121.7 1230.4 137.5 1249.1 134.5 1241.5 149.3 1217.5 150.7C1216.3 150.7 1215.6 152 1215.7 152.8 1215.7 154 1216.6 154.7 1217.8 154.7L1239.7 153.4 1234.7 163.3 1223.9 163.9C1222.7 164 1222 164.8 1222 166 1222.1 166.8 1222.9 168 1224.1 167.9L1232.5 167.5 1226.4 179.8C1225.7 181.1 1226.1 182.2 1227.4 182.6 1228.2 182.9 1229.4 182.9 1229.7 181.6L1236.2 169.2 1241 176.2C1241.5 177 1242.7 177.3 1243.5 176.9 1244.2 176.4 1244.6 175.6 1244.6 175.2 1244.5 174.8 1244.5 174.4 1244.1 174L1238.4 165.1 1243 155.2 1254.9 173.8C1255.8 174.6 1257 174.9 1257.7 174.4 1258.5 174 1258.9 173.2 1258.8 172.4 1258.8 172 1258.8 172 1258.4 171.6L1245.2 151.1 1252.8 136.3 1261.4 153.4 1268 135.4 1277.2 149.3 1266.4 171.1C1266 172 1266.1 173.2 1267.3 173.9 1268.2 174.3 1269.3 173.8 1270.1 172.9L1279.8 153.2 1285.5 162.5 1280.8 171.9C1280.1 172.8 1280.6 173.9 1281.8 174.7 1282.6 175 1283.8 174.6 1284.6 173.7L1288.1 166.3 1296 177.9C1296.5 179.1 1297.7 179 1298.8 178.5 1299.2 178.1 1299.6 177.3 1299.6 176.9 1299.5 176.5 1299.5 176.1 1299.1 175.7L1291.6 164.1 1300 163.6C1301.2 163.6 1301.9 162.3 1301.9 161.5L1301.9 161.5C1301.8 160.3 1301 159.6 1299.8 159.6L1289 160.3 1283.3 151 1304.8 149.7C1306 149.7 1306.8 148.8 1306.7 147.6S1305.8 145.7 1304.6 145.7L1280.6 147.1 1271.4 133.2 1290.3 134.1 1278.3 119.6 1295.1 118.6 1308.2 138.7C1309.1 139.9 1310.3 139.8 1311.1 139.4 1311.8 138.9 1312.2 137.7 1311.7 136.5L1299.8 118.4 1310.2 117.8 1316.3 126.7C1316.8 127.8 1318 128.2 1319.2 127.3 1320 126.8 1320.3 125.6 1319.8 124.5L1315 117.5 1329 116.7C1330.2 116.7 1331 115.8 1330.9 114.6S1330 112.7 1328.8 112.7L1314.8 113.5 1318.4 106.1C1318.8 105.7 1318.7 105.3 1318.7 104.9 1318.7 104.1 1318.2 103.7 1317.8 103.3 1316.6 102.6 1315.4 103.1 1315.1 104.3L1310 113.8 1299.2 114.4 1309.3 95C1309.3 94.6 1309.3 94.2 1309.3 93.8 1309.2 93 1308.8 92.6 1308.4 92.2 1307.1 91.5 1306 92 1305.6 93.2L1294.8 114.6 1278.1 115.6 1288.4 99.8 1269.7 102.8 1277.3 88 1301.3 86.6C1302.5 86.6 1303.2 85.3 1303.1 84.5 1303.1 83.3 1302.2 82.6 1301 82.6L1279.5 83.9 1284.1 74 1294.9 73.4C1296.1 73.3 1296.8 72.5 1296.8 71.3S1295.9 69.3 1294.7 69.4L1286.3 69.9 1292.4 57.5C1292.8 57.1 1292.7 56.7 1292.7 56.3 1292.7 55.9 1292.3 55.1 1291.4 54.7 1290.6 54.4 1289.4 54.5 1289.1 55.7ZM1280.3 105.1L1271.8 118 1281.7 129.8 1266 129.1 1260.8 143.4 1253.6 129.8 1238.5 132.3 1247 119.4 1237.1 107.5 1252.4 108.2 1258 93.9 1264.8 107.5 1280.3 105.1Z" fill="rgba(188, 190, 193, 0.1)"></path><path d="M604.5 138.8L575.6 164 561.6 162.7 571.4 154.3C572.7 153.6 572.5 152.1 571.9 150.8 571.1 150.2 569.3 149.9 568.7 150.8L555 162.2 541.3 161.4 549.2 150.1 566.8 146.9C566.8 146.9 567.2 146.7 567.2 146.7 568.1 146.3 568.5 145 568.6 143.9 567.9 142.6 567.1 142 565.6 142.2L552.9 144.6 560.8 133.3 598.2 125.9C598.2 125.9 598.9 126.1 598.9 126.1 599.7 125.7 600.2 124.4 600.2 123.3 600 121.8 598.5 120.9 597.2 121.6L564.5 127.8 573.7 113.7 588.4 110.9C588.4 110.9 588.4 110.9 588.8 110.7 589.6 110.3 590.3 109.4 590.3 108.4 589.7 107.1 588.6 106 587.1 106.2L577.4 108.2 584.2 98C585.3 96.9 584.7 95.6 583.9 95 582.8 93.9 581.3 94.1 580.4 95.6L573.4 105.3 572 95.9C571.4 94.6 570.3 93.5 569 94.1 567.5 94.3 566.9 95.2 567.1 96.7L569.9 111.3 560.5 124.9 554.1 91.8C554.1 90.7 552.6 89.8 551.1 90 550.2 90.4 549.1 91.5 549.3 93L556.7 130.4 548.8 141.7 546.4 129C546.3 127.5 545 127.1 543.5 127.3 542.4 127.2 541.5 128.7 541.5 129.8L545.1 147.2 537.4 158.9 531.4 146.4 537.2 129.7C537.7 128.5 537 127.2 535.7 126.7 534.9 126.1 533.2 126.9 532.7 128.2L528.5 140.4 522.4 127.8 535.4 91.7C535.8 90.4 535.2 89.1 533.9 88.7 532.6 88.2 531.3 88.9 530.9 90.2L519.5 121.8 512.4 107.1 517.3 93C517.8 91.7 517.1 90.4 515.9 89.9 514.6 89.5 513.3 90.1 512.8 91.4L509.3 100.6 504.1 89.8C503.4 88.5 502.2 88 500.9 88.7 499.6 89.3 499.1 90.6 499.7 91.9L505 102.7 496 99.5C494.7 99.1 493.4 99.7 493 101S493.1 103.6 494.4 104L507.9 108.7 515.2 123.9 483.8 112.9C482.5 112.4 481.2 113.1 480.7 114.3 480.3 115.6 480.9 116.9 482.2 117.4L518.1 129.9 524.1 142.4 512 138.2C510.7 137.7 509.4 138.4 508.9 139.6 508.5 140.9 509.1 142.2 510.4 142.7L527.1 148.5 532.9 160.6 519.6 159.6 507.8 146.1C506.9 145.4 505.2 145.2 504.6 146 503.5 147.1 503.5 148.2 504.1 149.5L512.5 159.2 499.2 158.2 474.1 129.3C473 128.2 472 128.2 470.7 128.8 469.6 129.9 469.8 131.4 470.2 132.2L492.2 157.9 475.4 156.4 465.9 145.5C465.3 144.2 463.8 144.4 462.5 145 461.8 145.9 461.6 147.6 462.7 148.7L468.8 155.8 456.8 155.2C455.5 154.8 454.4 155.8 454.2 157.6 454.1 158.6 455.2 159.7 456.3 159.7L468.5 160.8 460.9 167.1C459.8 168.2 460 169.7 460.9 170.3 461.5 171.6 462.6 171.6 463.4 171.2 463.8 171 463.8 171 464.3 170.8L475.1 161.3 491.9 162.8 466.7 184.6C465.4 185.2 465.6 186.7 466.2 188 467 188.7 468.1 188.7 469 188.3 469.4 188 469.4 188 469.4 188L499 163.1 512.2 164.2 502.5 172.6C501.4 173.7 501.4 174.8 502 176 502.8 176.7 504.1 177.2 505 176.7 505.4 176.5 505.4 176.5 505.9 176.3L519.3 164.5 532.6 165.5 525.2 176.6 507.7 180.2C506.2 180.4 505.3 181.9 505.3 183 506 184.3 507 185.3 508.3 184.7L521 182.3 513.8 193.8 475.7 201C474.6 201 473.7 202.5 473.7 203.6 474.3 204.9 475.4 205.9 476.9 205.8L509.6 199.6 500.2 213.2 486 215.8C484.5 215.9 483.6 217.4 484.2 218.7 484.2 219.8 485.3 220.9 486.8 220.7L496.5 218.7 489.7 228.9C489 229.8 489.2 231.3 490.3 232.3 490.9 232.6 492 232.6 492.8 232.2 492.8 232.2 493.3 232 493.7 231.7L500.5 221.5 502.5 231.2C502.5 232.3 504 233.2 505.1 233.2 505.5 233 505.5 233 505.5 233 506.8 232.4 507.2 231.1 506.8 230.2L504.2 216 513.4 202 519.8 235.1C520.5 236.4 521.3 237.1 522.8 236.9 522.8 236.9 523.3 236.7 523.3 236.7 524.1 236.3 524.8 235.4 524.6 233.9L517.6 196.2 525 185.2 527.4 197.9C528.1 199.2 529.1 200.3 530.4 199.6 530.6 200.1 531.1 199.9 531.1 199.9 531.9 199.4 532.4 198.2 532.4 197.1L528.8 179.6 536.7 168.4 542.5 180.5 536.7 197.1C536.2 198.4 537.1 200.2 538.4 200.6 539.4 200.6 540.7 200 541.4 199.1L545.4 186.5 551.5 199.1 538.9 235C538.5 236.2 539.1 237.5 540.4 238 541.7 238.4 543 237.8 543.4 236.5L554.4 205.1 561.7 220.3 557 233.7C556.6 235 557.2 236.3 558.5 236.7S561 236.6 561.5 235.3L564.6 226.3 569.8 237.1C570.5 238.4 571.7 238.9 573 238.2 574.3 237.6 574.8 236.3 574.2 235L568.9 224.2 578.3 227.1C579 227.4 579.6 227.6 580.1 227.4 580.5 227.2 581.1 226.3 581.4 225.7 581.8 224.4 581.2 223.1 579.9 222.7L566 218.2 558.7 203 590.6 213.8C591.2 214 591.8 214.2 592.3 214 592.7 213.8 593.4 213 593.6 212.3 594 211 593.4 209.7 592.1 209.3L555.8 197 549.7 184.4 562.1 189.1C562.8 189.4 563.6 188.9 564.1 188.7 564.5 188.5 564.9 188.3 565.2 187.7 565.6 186.4 564.8 184.7 563.7 184.6L546.8 178.4 541 166.3 554.7 167.1 566.1 180.8C567 181.5 568.2 181.9 569.1 181.5 569.5 181.3 569.5 181.3 569.3 180.9 570.6 180.2 570.9 178.5 569.8 177.4L561.4 167.7 575.1 168.5 600 198C600.9 198.7 601.9 198.7 602.8 198.3 603.2 198.1 603.2 198.1 603.2 198.1 604.3 197 604.8 195.7 603.7 194.7L581.7 169 598.5 170.5 608 181.4C609 182.5 610.1 182.5 611 182.1 611 182.1 611.4 181.9 611.4 181.9 612.5 180.8 612.3 179.3 611.9 178.5L605.1 171.1 617.3 172.1C617.8 171.9 618.2 171.7 618.6 171.5 619.1 171.3 619.7 170.4 619.9 169.8 619.7 168.3 619.1 167 617.6 167.2L605.4 166.1 613 159.8C614.1 158.7 613.9 157.2 613.5 156.4 612.4 155.3 610.9 155.5 609.6 156.1L598.7 165.6 582.2 164.5 607.4 142.8C608.5 141.7 608.8 140 607.9 139.3 606.9 138.2 605.6 137.8 604.5 138.8Z" fill="rgba(188, 190, 193, 0.1)"></path></g><defs><mask id="SvgjsMask1040"><rect width="1440" height="560" fill="#ffffff"></rect></mask><filter id="SvgjsFilter1041"><feGaussianBlur stdDeviation="1"></feGaussianBlur></filter></defs></svg>